<svg xmlns="http://www.w3.org/2000/svg" viewBox="-122.88 -2170.88 2293.76 2703.36"><path d="M1746 0L302 0Q242 0 187 -24.5Q132 -49 90.5 -90.5Q49 -132 24.5 -187Q0 -242 0 -302L0 -302L0 -1746Q0 -1806 24.5 -1861Q49 -1916 90.5 -1957.5Q132 -1999 187 -2023.5Q242 -2048 302 -2048L302 -2048L1746 -2048Q1806 -2048 1861 -2023.5Q1916 -1999 1957.5 -1957.5Q1999 -1916 2023.5 -1861Q2048 -1806 2048 -1746L2048 -1746L2048 -302Q2048 -242 2023.5 -187Q1999 -132 1957.5 -90.5Q1916 -49 1861 -24.5Q1806 0 1746 0L1746 0ZM307 -205L1741 -205Q1762 -205 1780.5 -213Q1799 -221 1813 -235Q1827 -249 1835 -267.5Q1843 -286 1843 -307L1843 -307L1843 -1741Q1843 -1762 1835 -1780.5Q1827 -1799 1813 -1813Q1799 -1827 1780.5 -1835Q1762 -1843 1741 -1843L1741 -1843L307 -1843Q286 -1843 267.5 -1835Q249 -1827 235 -1813Q221 -1799 213 -1780.5Q205 -1762 205 -1741L205 -1741L205 -307Q205 -286 213 -267.5Q221 -249 235 -235Q249 -221 267.5 -213Q286 -205 307 -205L307 -205Z" fill="#000000" fill-rule="nonzero"/></svg>