<svg xmlns="http://www.w3.org/2000/svg" width="128" height="128" fill="none" viewBox="0 0 128 128"><path fill="#fff" d="M56.794 84.969C44.419 83.469 35.7 74.563 35.7 63.03c0-4.687 1.688-9.75 4.5-13.125-1.219-3.093-1.031-9.656.375-12.375 3.75-.468 8.813 1.5 11.813 4.219 3.562-1.125 7.312-1.687 11.906-1.687s8.344.562 11.719 1.593c2.906-2.625 8.062-4.593 11.812-4.125 1.313 2.532 1.5 9.094.281 12.282 3 3.562 4.594 8.343 4.594 13.218 0 11.532-8.719 20.25-21.281 21.844 3.187 2.063 5.344 6.563 5.344 11.719v9.75c0 2.812 2.343 4.406 5.156 3.281 16.969-6.469 30.281-23.437 30.281-44.437C112.2 38.656 90.638 17 64.106 17 37.575 17 16.2 38.656 16.2 65.188c0 20.812 13.219 38.062 31.031 44.531 2.532.937 4.969-.75 4.969-3.281v-7.5c-1.312.562-3 .937-4.5.937-6.187 0-9.844-3.375-12.469-9.656-1.031-2.531-2.156-4.031-4.312-4.313-1.125-.094-1.5-.562-1.5-1.125 0-1.125 1.875-1.969 3.75-1.969 2.719 0 5.062 1.688 7.5 5.157 1.875 2.719 3.844 3.937 6.187 3.937s3.844-.844 6-3c1.594-1.594 2.813-3 3.938-3.937"/></svg>