<svg xmlns="http://www.w3.org/2000/svg" xml:space="preserve" width="16" height="16" viewBox="0 0 4.233 4.233"><path d="M3.178 2.403c.223-.23.23-.24.23-.24s.07-.017.07.055c-.172.176-.17.178-.17.178l.297-.003s.062.046-.001.081c-.064.035-.005.002-.005.002l-.293-.002.17.173s-.004.07-.061.062c-.058-.01-.002 0-.002 0L3.18 2.48l-.164.092.066.078s-.011.064-.06.053c-.048-.01 0 0 0 0l-.086-.081-.005-.363.085-.1s.073-.005.064.061c-.009.067 0 0 0 0l-.071.084ZM1.813 1.692l-.317-.078s-.05-.052.013-.088c.239.06.24.059.24.059l-.153-.257s.01-.077.071-.04c.062.038.004.004.004.004l.146.254.064-.233s.063-.033.084.021 0 .001 0 .001l-.077.323.16.089.035-.096s.06-.023.075.024c.016.047 0 0 0 0l-.027.116-.321.19-.118-.027s-.042-.06.02-.086l.101.017zM1.876 3.212c.088.308.09.332.09.332s-.02.07-.083.033c-.066-.237-.068-.237-.068-.237l-.146.26s-.072.03-.07-.042v-.005l.148-.253-.234.06s-.06-.038-.023-.083c.036-.046 0-.002 0-.002l.343-.096-.005-.197-.122.035s-.05-.04-.016-.078c.033-.036 0 0 0 0l.113-.033.326.184.034.116s-.031.064-.085.023c-.053-.04 0 0 0 0l-.036-.11ZM2.424 2.518l-.08-.114-.068.047.078.112c-.026.101-.058.208-.084.311 0 0 .02.075.085.029l.058-.227v-.001l.134.232-.08.32s.04.053.085.018l.056-.227.162.267s.064.01.07-.052l-.152-.266.228.063s.064-.019.025-.08l-.313-.088-.13-.229.226.061s.058-.022.025-.082z" style="fill:#eceff4;fill-opacity:1;stroke-width:.0125346" transform="matrix(1.80552 0 0 1.8183 -2.325 -2.324)"/><path d="m2.319 2.309-.059.126.075.036.058-.123c.1-.028.21-.054.311-.083 0 0 .056-.054-.017-.088l-.225.063H2.46l.134-.232.317-.088s.026-.062-.026-.084L2.66 1.9l.152-.273s-.024-.06-.08-.035l-.155.265-.059-.23s-.048-.046-.082.018l.08.316-.134.226-.06-.226s-.048-.039-.083.02z" style="fill:#eceff4;fill-opacity:1;stroke-width:.0125346" transform="matrix(1.80552 0 0 1.8183 -2.325 -2.324)"/><path d="m2.14 2.468.139-.013-.006-.083-.136.012c-.074-.074-.15-.155-.227-.229 0 0-.074-.02-.068.059l.168.164h-.268l-.235-.23s-.067.008-.06.064l.169.163-.313.005s-.04.051.01.088l.307.001-.17.165s-.015.066.057.063l.233-.227.263.003-.166.165s-.01.061.059.062z" style="fill:#eceff4;fill-opacity:1;stroke-width:.0125346" transform="matrix(1.80552 0 0 1.8183 -2.325 -2.324)"/><path d="M1.888 1.653s-.059-.02-.078.038v1.495s.01.051.071.045l1.3-.75s.036-.037.001-.082z" style="fill:#eceff4;fill-opacity:1;stroke-width:.0390369;stroke-dasharray:none;paint-order:fill markers stroke" transform="matrix(1.80552 0 0 1.8183 -2.325 -2.324)"/></svg>